<?xml version="1.0" encoding="utf-8"?>
<!-- Generator: Adobe Illustrator 26.0.2, SVG Export Plug-In . SVG Version: 6.00 Build 0)  -->
<svg version="1.1" id="Layer_1" xmlns="http://www.w3.org/2000/svg" xmlns:xlink="http://www.w3.org/1999/xlink" x="0px" y="0px"
	 viewBox="0 0 18 19" style="enable-background:new 0 0 18 19;" xml:space="preserve">
<style type="text/css">
	.st0{fill:#E5E5E4;}
</style>
<g>
	<g>
		<path class="st0" d="M8.4,8.4c0,0.3-0.2,0.6-0.6,0.6H1c-0.3,0-0.6-0.2-0.6-0.6V1.6C0.5,1.2,0.7,1,1,1h6.8c0.3,0,0.6,0.2,0.6,0.6
			V8.4z"/>
	</g>
	<g>
		<path class="st0" d="M17.5,8.4c0,0.3-0.2,0.6-0.6,0.6h-6.8c-0.3,0-0.6-0.2-0.6-0.6V1.6C9.6,1.2,9.9,1,10.2,1H17
			c0.3,0,0.6,0.2,0.6,0.6V8.4z"/>
	</g>
	<g>
		<path class="st0" d="M8.4,17.4c0,0.3-0.2,0.6-0.6,0.6H1c-0.3,0-0.6-0.2-0.6-0.6v-6.8c0-0.3,0.2-0.6,0.6-0.6h6.8
			c0.3,0,0.6,0.2,0.6,0.6V17.4z"/>
	</g>
	<g>
		<path class="st0" d="M17.5,17.4c0,0.3-0.2,0.6-0.6,0.6h-6.8c-0.3,0-0.6-0.2-0.6-0.6v-6.8c0-0.3,0.2-0.6,0.6-0.6H17
			c0.3,0,0.6,0.2,0.6,0.6V17.4z"/>
	</g>
</g>
</svg>
