<?xml version="1.0" encoding="utf-8"?>
<!-- Generator: Adobe Illustrator 26.0.2, SVG Export Plug-In . SVG Version: 6.00 Build 0)  -->
<svg version="1.1" id="Layer_1" xmlns="http://www.w3.org/2000/svg" xmlns:xlink="http://www.w3.org/1999/xlink" x="0px" y="0px"
	 viewBox="0 0 18 19" style="enable-background:new 0 0 18 19;" xml:space="preserve">
<style type="text/css">
	.st0{fill:#E5E5E4;}
</style>
<g>
	<path class="st0" d="M4.8,5.1c0,0.3-0.3,0.6-0.6,0.6H0.8c-0.3,0-0.6-0.3-0.6-0.6V1.6C0.2,1.3,0.4,1,0.8,1h3.5
		c0.3,0,0.6,0.3,0.6,0.6V5.1z"/>
	<path class="st0" d="M17.7,5.1c0,0.3-0.3,0.6-0.6,0.6H6.6C6.3,5.6,6,5.4,6,5.1V1.6C6,1.3,6.3,1,6.6,1h10.6c0.3,0,0.6,0.3,0.6,0.6
		V5.1z"/>
	<path class="st0" d="M4.8,11c0,0.3-0.3,0.6-0.6,0.6H0.8c-0.3,0-0.6-0.3-0.6-0.6V7.5c0-0.3,0.3-0.6,0.6-0.6h3.5
		c0.3,0,0.6,0.3,0.6,0.6V11z"/>
	<path class="st0" d="M17.7,11c0,0.3-0.3,0.6-0.6,0.6H6.6C6.3,11.5,6,11.3,6,11V7.5c0-0.3,0.3-0.6,0.6-0.6h10.6
		c0.3,0,0.6,0.3,0.6,0.6V11z"/>
	<path class="st0" d="M4.8,16.8c0,0.3-0.3,0.6-0.6,0.6H0.8c-0.3,0-0.6-0.3-0.6-0.6v-3.5c0-0.3,0.3-0.6,0.6-0.6h3.5
		c0.3,0,0.6,0.3,0.6,0.6V16.8z"/>
	<path class="st0" d="M17.7,16.8c0,0.3-0.3,0.6-0.6,0.6H6.6c-0.3,0-0.6-0.3-0.6-0.6v-3.5c0-0.3,0.3-0.6,0.6-0.6h10.6
		c0.3,0,0.6,0.3,0.6,0.6V16.8z"/>
</g>
</svg>
