<?xml version="1.0" encoding="utf-8"?>
<!-- Generator: Adobe Illustrator 26.0.2, SVG Export Plug-In . SVG Version: 6.00 Build 0)  -->
<svg version="1.1" id="Layer_1" xmlns="http://www.w3.org/2000/svg" xmlns:xlink="http://www.w3.org/1999/xlink" x="0px" y="0px"
	 viewBox="0 0 18 19" style="enable-background:new 0 0 18 19;" xml:space="preserve">
<style type="text/css">
	.st0{fill:#F9F9F9;}
</style>
<g>
	<path class="st0" d="M9,0.6c1.9,0,3.9,0,5.8,0c0.7,0,1.3,0.1,1.8,0.5c0.9,0.6,1.3,1.5,1.3,2.5c0,3.9,0,7.9,0,11.8
		c0,1.4-0.7,2.4-2,2.9c-0.3,0.1-0.7,0.2-1,0.2c-3.9,0-7.9,0-11.8,0c-1.5,0-2.7-1.1-3-2.4c0-0.2-0.1-0.4-0.1-0.6c0-3.9,0-7.8,0-11.8
		c0-1.5,1-2.7,2.4-3c0.2,0,0.5,0,0.7,0C5.1,0.6,7.1,0.6,9,0.6z M1.6,9.5c0,2,0,3.9,0,5.9c0,1,0.6,1.6,1.6,1.6c3.9,0,7.8,0,11.7,0
		c1,0,1.6-0.6,1.6-1.6c0-3.9,0-7.8,0-11.7c0-1-0.6-1.6-1.6-1.6c-3.9,0-7.8,0-11.7,0c-0.1,0-0.3,0-0.4,0C2,2.2,1.6,2.8,1.6,3.6
		C1.6,5.5,1.6,7.5,1.6,9.5z"/>
	<path class="st0" d="M4.5,9.5C4.5,7.2,6.4,5,9,5c2.4,0,4.5,2,4.5,4.5c0,2.4-2,4.5-4.5,4.5C6.5,14,4.5,12,4.5,9.5z M12,9.5
		c0-1.6-1.3-3-2.9-3c-1.7,0-3,1.3-3,3c0,1.6,1.3,3,3,3C10.6,12.5,12,11.1,12,9.5z"/>
	<path class="st0" d="M13.8,5.8c-0.6,0-1.1-0.5-1.1-1.1c0-0.6,0.5-1.1,1.1-1.1C14.4,3.5,15,4,15,4.7C15,5.3,14.5,5.8,13.8,5.8z"/>
</g>
</svg>
