<?xml version="1.0" encoding="utf-8"?>
<!-- Generator: Adobe Illustrator 26.0.2, SVG Export Plug-In . SVG Version: 6.00 Build 0)  -->
<svg version="1.1" id="Layer_1" xmlns="http://www.w3.org/2000/svg" xmlns:xlink="http://www.w3.org/1999/xlink" x="0px" y="0px"
	 viewBox="0 0 18 19" style="enable-background:new 0 0 18 19;" xml:space="preserve">
<style type="text/css">
	.st0{fill:#FDF9E9;}
</style>
<g>
	<path class="st0" d="M9.1,4.3c0,0.4,0,0.8,0,1.2c0,0.1,0,0.2,0,0.4C9,6.3,8.6,6.5,8.2,6.2c-0.5-0.3-1-0.6-1.5-0.9
		c-0.8-0.5-1.6-1-2.4-1.5c-0.4-0.2-0.4-0.8,0-1C5.6,2,6.9,1.2,8.2,0.4c0.2-0.1,0.4-0.2,0.6-0.1C9,0.4,9.1,0.6,9.1,0.9
		c0,0.5,0,0.9,0,1.4c0.4,0,0.7,0.1,1.1,0.1c1.5,0.2,2.9,0.8,4,1.8c1.5,1.3,2.5,2.9,2.9,4.8c0.5,2.7-0.2,5.1-2,7.1
		c-1.3,1.4-2.9,2.3-4.8,2.6c-2.8,0.4-5.2-0.4-7.2-2.4c-1.7-1.7-2.5-3.9-2.4-6.3c0.1-1.5,0.6-2.9,1.4-4.2c0.2-0.3,0.5-0.4,0.8-0.2
		c0.3,0.1,0.5,0.3,0.8,0.4C4,6.3,4.1,6.6,3.9,6.9C3.4,7.6,3,8.4,2.9,9.2c-0.4,2,0,3.7,1.3,5.3c0.9,1.1,2.1,1.9,3.5,2.2
		c2.7,0.6,5.5-0.6,6.8-3.2c1-1.9,1-3.9,0-5.9c-1-1.8-2.5-2.9-4.5-3.2C9.7,4.3,9.4,4.3,9.1,4.3z"/>
</g>
</svg>
