<?xml version="1.0" encoding="utf-8"?>
<!-- Generator: Adobe Illustrator 26.0.2, SVG Export Plug-In . SVG Version: 6.00 Build 0)  -->
<svg version="1.1" id="Layer_1" xmlns="http://www.w3.org/2000/svg" xmlns:xlink="http://www.w3.org/1999/xlink" x="0px" y="0px"
	 viewBox="0 0 6 6" style="enable-background:new 0 0 6 6;" xml:space="preserve">
<style type="text/css">
	.st0{opacity:0.3;fill:#C52026;}
</style>
<path class="st0" d="M3.7,3l2.3-2.3C6,0.7,6,0.5,5.9,0.4L5.6,0.1C5.5,0,5.3,0,5.3,0.1L3,2.3L0.7,0.1C0.7,0,0.5,0,0.4,0.1L0.1,0.4
	C0,0.5,0,0.7,0.1,0.7L2.3,3L0.1,5.3C0,5.3,0,5.5,0.1,5.6l0.3,0.3C0.5,6,0.7,6,0.7,5.9L3,3.7l2.3,2.3C5.3,6,5.5,6,5.6,5.9l0.3-0.3
	C6,5.5,6,5.3,5.9,5.3L3.7,3z"/>
</svg>
