<?xml version="1.0" encoding="utf-8"?>
<!-- Generator: Adobe Illustrator 26.0.2, SVG Export Plug-In . SVG Version: 6.00 Build 0)  -->
<svg version="1.1" id="Layer_1" xmlns="http://www.w3.org/2000/svg" xmlns:xlink="http://www.w3.org/1999/xlink" x="0px" y="0px"
	 viewBox="0 0 110 138" style="enable-background:new 0 0 110 138;" xml:space="preserve">
<style type="text/css">
	.st0{fill:#C52026;}
	.st1{fill:#FDFCED;}
</style>
<g>
	<g>
		<path class="st0" d="M55.6,1c13.9,0.4,25.9,5.4,36.1,14.6c2.1,1.8,3.9,4,5.7,6c1.3,1.5,1.3,2.8-0.1,4.3c-0.9,1-1.8,1.9-2.7,2.8
			c-1.2,1.2-2.6,1.2-3.7-0.1c-2.4-2.9-5-5.6-7.9-8c-6.6-5.2-14-8.4-22.3-9.4c-12.4-1.5-23.6,1.6-33.6,9.2c-3,2.3-5.6,4.9-7.9,7.8
			c-1.7,2.1-2.4,2.1-4.3,0.2c-0.8-0.9-1.7-1.7-2.5-2.6c-1-1.1-1.1-2.8-0.2-4c5.2-6.4,11.4-11.7,19-15.2c5.3-2.4,10.8-4.3,16.6-5.1
			C50.5,1.2,53,1.2,55.6,1z"/>
		<path class="st0" d="M54.1,20.3c11.7,0.2,21,4.4,28.3,12.8c0.7,0.8,1.3,1.6,2,2.4c1,1.3,1,2.6-0.1,3.9c-1,1.2-2.1,2.3-3.2,3.4
			C79.9,44,79,43.9,78,42.7c-1.2-1.5-2.4-3.2-3.8-4.6c-10.4-10.5-27.4-10.7-38-0.4c-1.5,1.5-2.8,3.2-4.1,4.8
			c-1.2,1.5-2.1,1.7-3.4,0.3c-1-1-2-2.1-3-3.1c-1.2-1.3-1.3-2.6-0.2-4.1c2.8-3.7,6.1-6.9,10-9.4C41.4,22.4,47.8,20.6,54.1,20.3z"/>
		<path class="st0" d="M36.5,49.9c0.4-0.7,0.6-1.4,1-1.9c3.9-4.7,8.9-7.5,15-8.2c8.1-0.9,14.6,2.1,19.9,8.1c1.2,1.4,1.2,2.7-0.1,4.1
			c-1,1.1-2.1,2.2-3.2,3.3c-1.1,1.2-2.1,1.1-3.1-0.2c-2.3-3-5.2-5-8.9-5.6c-5.2-0.8-9.5,0.9-12.8,5c-1.7,2.1-2.3,2.1-4.2,0.2
			c-0.9-0.9-1.8-1.8-2.6-2.7C37.2,51.3,36.9,50.6,36.5,49.9z"/>
	</g>
	<path class="st0" d="M107.4,70.7H2.6c-1.1,0-1.9,0.9-1.9,1.9v16.7c0,1.1,0.9,1.9,1.9,1.9h9.2v43.9c0,1.1,0.9,1.9,1.9,1.9h82.6
		c1.1,0,1.9-0.9,1.9-1.9V91.2h9.2c1.1,0,1.9-0.9,1.9-1.9V72.6C109.4,71.6,108.5,70.7,107.4,70.7z M41,127.7c0,0.9-0.7,1.6-1.6,1.6
		H25.4c-0.9,0-1.6-0.7-1.6-1.6V97.1c0-0.9,0.7-1.6,1.6-1.6h13.9c0.9,0,1.6,0.7,1.6,1.6V127.7z M63.5,127.7c0,0.9-0.7,1.6-1.6,1.6
		H47.9c-0.9,0-1.6-0.7-1.6-1.6V97.1c0-0.9,0.7-1.6,1.6-1.6h13.9c0.9,0,1.6,0.7,1.6,1.6V127.7z M85.9,127.7c0,0.9-0.7,1.6-1.6,1.6
		H70.4c-0.9,0-1.6-0.7-1.6-1.6V97.1c0-0.9,0.7-1.6,1.6-1.6h13.9c0.9,0,1.6,0.7,1.6,1.6V127.7z"/>
	<g>
		<g>
			<g>
				<g>
					<g>
						<polygon class="st1" points="56.2,81.4 54,79.6 54,79.6 53,79.6 53,82.4 53.9,82.4 53.9,80.6 56,82.4 56,82.4 57.1,82.4 
							57.1,79.6 56.2,79.6 						"/>
						<g>
							<path class="st1" d="M61.2,79.6h-0.5h-0.8H59v0.1v0.6v1.4v0.6v0.1v0.1h0.9h0.8h0.5c0.6,0,1.8,0,1.8-1.4
								C63,79.7,61.7,79.6,61.2,79.6z M61.2,81.7H61h-1.1v-1.3h0.6h0.4h0.2c0.3,0,0.9,0,0.9,0.7C62.1,81.7,61.5,81.7,61.2,81.7z"/>
						</g>
						<path class="st1" d="M49.6,79.6h-1.1l-2,2.8h1.1l0.3-0.5h2.1l0.3,0.5h1.1L49.6,79.6z M48.3,81.4l0.7-1.1l0.7,1.1H48.3z"/>
					</g>
					<g>
						<g>
							<g>
								<polygon class="st1" points="71.1,77.2 64.6,77.2 64.6,79.2 66.5,79.2 66.5,84.8 69.3,84.8 69.3,79.2 71.1,79.2 								"/>
							</g>
							<g>
								<polygon class="st1" points="94.3,77.2 87.8,77.2 87.8,79.2 89.6,79.2 89.6,84.8 92.4,84.8 92.4,79.2 94.3,79.2 								"/>
							</g>
							<g>
								<polygon class="st1" points="100.8,78.8 100.8,77.2 98,77.2 95.4,77.2 95.4,78.8 95.4,79.9 95.4,81.8 95.4,82.9 95.4,84.8 
									98,84.8 101,84.8 101,82.9 98,82.9 98,81.8 100.4,81.8 100.4,79.9 98,79.9 98,78.8 								"/>
							</g>
							<g>
								<g>
									<path class="st1" d="M76.6,84.8h2.5l-2.9-7.6H74l-2.9,7.6h2.5l0.3-1h2.4L76.6,84.8z M74.4,82.1l0.7-2.4l0.7,2.4H74.4z"/>
								</g>
							</g>
							<path class="st1" d="M86.3,81.1c-0.4-0.4-0.9-0.6-1.8-0.9L83.2,80c0,0-0.1,0-0.1,0c-0.6-0.2-0.8-0.5-0.6-0.7
								c0.1-0.2,0.4-0.3,0.7-0.3c0.1,0,0.1,0,0.2,0c0.4,0,0.8,0,1.4,0.7l2-0.8c-0.7-1.1-1.9-1.6-3.5-1.6c-2,0-3.4,1-3.4,2.2
								c0,0.5,0.2,1,0.6,1.4c0.4,0.4,1,0.6,1.9,0.8c1.6,0.4,1.9,0.6,2,0.9c0,0.1-0.1,0.2-0.1,0.3c-0.2,0.2-0.6,0.4-1,0.3
								c-0.5,0-1.3-0.2-1.9-1l-1.9,1c0.9,1.2,2.3,1.9,3.9,1.9c1.2,0,2.2-0.3,2.8-0.8c0.7-0.5,0.9-1.1,0.9-1.7
								C87,81.9,86.8,81.5,86.3,81.1z"/>
						</g>
						<g>
							<path class="st1" d="M102.6,77.2c-0.4,0-0.8-0.3-0.8-0.8c0-0.4,0.3-0.7,0.8-0.7c0.4,0,0.7,0.3,0.7,0.7
								C103.3,76.9,103,77.2,102.6,77.2z M102.6,75.8c-0.4,0-0.7,0.3-0.7,0.7c0,0.4,0.3,0.7,0.7,0.7c0.4,0,0.7-0.3,0.7-0.7
								C103.2,76.1,102.9,75.8,102.6,75.8z"/>
							<g>
								<path class="st1" d="M102.9,76.9L102.9,76.9l-0.1-0.1c-0.1,0.1-0.2,0.1-0.3,0.1c-0.2,0-0.4-0.2-0.4-0.4
									c0-0.1,0.1-0.3,0.1-0.3c0.1-0.1,0.1-0.1,0.2-0.1c0.2,0,0.3,0.1,0.3,0.3h-0.1c0-0.1-0.1-0.2-0.2-0.2c-0.2,0-0.3,0.1-0.3,0.3
									c0,0.1,0,0.2,0.1,0.3c0.1,0.1,0.1,0.1,0.2,0.1c0.1,0,0.3-0.1,0.3-0.2v0h-0.3v-0.1h0.3V76.9z"/>
							</g>
						</g>
					</g>
					<g>
						<g>
							<g>
								<polygon class="st1" points="14.7,77.2 8.2,77.2 8.2,79.2 10.1,79.2 10.1,84.8 12.9,84.8 12.9,79.2 14.7,79.2 								"/>
							</g>
							<g>
								<polygon class="st1" points="37.9,77.2 31.4,77.2 31.4,79.2 33.2,79.2 33.2,84.8 36,84.8 36,79.2 37.9,79.2 								"/>
							</g>
							<g>
								<polygon class="st1" points="44.4,78.8 44.4,77.2 41.6,77.2 39,77.2 39,78.8 39,79.9 39,81.8 39,82.9 39,84.8 41.6,84.8 
									44.6,84.8 44.6,82.9 41.6,82.9 41.6,81.8 44,81.8 44,79.9 41.6,79.9 41.6,78.8 								"/>
							</g>
							<g>
								<g>
									<path class="st1" d="M20.2,84.8h2.5l-2.9-7.6h-2.2l-2.9,7.6h2.5l0.3-1h2.4L20.2,84.8z M18,82.1l0.7-2.4l0.7,2.4H18z"/>
								</g>
							</g>
							<path class="st1" d="M29.9,81.1c-0.4-0.4-0.9-0.6-1.8-0.9L26.8,80c0,0-0.1,0-0.1,0c-0.6-0.2-0.8-0.5-0.6-0.7
								c0.1-0.2,0.4-0.3,0.7-0.3c0.1,0,0.1,0,0.2,0c0.4,0,0.8,0,1.4,0.7l2-0.8c-0.7-1.1-1.9-1.6-3.5-1.6c-2,0-3.4,1-3.4,2.2
								c0,0.5,0.2,1,0.6,1.4c0.4,0.4,1,0.6,1.9,0.8c1.6,0.4,1.9,0.6,2,0.9c0,0.1-0.1,0.2-0.1,0.3c-0.2,0.2-0.6,0.4-1,0.3
								c-0.5,0-1.3-0.2-1.9-1L23,83c0.9,1.2,2.3,1.9,3.9,1.9c1.2,0,2.2-0.3,2.8-0.8c0.7-0.5,0.9-1.1,0.9-1.7
								C30.6,81.9,30.4,81.5,29.9,81.1z"/>
						</g>
					</g>
				</g>
			</g>
		</g>
	</g>
</g>
</svg>
