<?xml version="1.0" encoding="utf-8"?>
<!-- Generator: Adobe Illustrator 26.0.2, SVG Export Plug-In . SVG Version: 6.00 Build 0)  -->
<svg version="1.1" id="Layer_1" xmlns="http://www.w3.org/2000/svg" xmlns:xlink="http://www.w3.org/1999/xlink" x="0px" y="0px"
	 viewBox="0 0 91 59" style="enable-background:new 0 0 91 59;" xml:space="preserve">
<style type="text/css">
	.st0{fill:#C52026;}
</style>
<g>
	<g>
		<path class="st0" d="M11.3,26.1v-8.3c0-0.2-0.2-0.4-0.4-0.4H5.9c-0.2,0-0.4,0.2-0.4,0.4v8.3c-1.1,0.3-4.1,1.7-4.1,7.1v25.1
			c0,0.2,0.2,0.4,0.4,0.4h13.4c0.2,0,0.4-0.2,0.4-0.4V33.2C15.5,27.7,12.4,26.4,11.3,26.1z M13.2,54.8c0,0.2-0.2,0.4-0.4,0.4H4
			c-0.2,0-0.4-0.2-0.4-0.4V33.5c0-0.2,0.2-0.4,0.4-0.4h8.8c0.2,0,0.4,0.2,0.4,0.4V54.8z"/>
		<path class="st0" d="M5.9,16.2h5.1c0.2,0,0.4-0.2,0.4-0.4v-6c0-0.2-0.2-0.4-0.4-0.4H5.9c-0.2,0-0.4,0.2-0.4,0.4v6
			C5.4,16,5.6,16.2,5.9,16.2z"/>
	</g>
	<g>
		<path class="st0" d="M30,17.1V8.8c0-0.2-0.2-0.4-0.4-0.4h-5.1c-0.2,0-0.4,0.2-0.4,0.4v8.3c-1.1,0.3-4.1,1.7-4.1,7.1v34.1
			c0,0.2,0.2,0.4,0.4,0.4h13.4c0.2,0,0.4-0.2,0.4-0.4V24.2C34.1,18.7,31.1,17.4,30,17.1z M31.8,54.8c0,0.2-0.2,0.4-0.4,0.4h-8.8
			c-0.2,0-0.4-0.2-0.4-0.4V24.5c0-0.2,0.2-0.4,0.4-0.4h8.8c0.2,0,0.4,0.2,0.4,0.4V54.8z"/>
		<path class="st0" d="M24.5,7.2h5.1C29.8,7.2,30,7,30,6.8v-6c0-0.2-0.2-0.4-0.4-0.4h-5.1c-0.2,0-0.4,0.2-0.4,0.4v6
			C24.1,7,24.2,7.2,24.5,7.2z"/>
	</g>
	<g>
		<path class="st0" d="M48.6,26.1v-8.3c0-0.2-0.2-0.4-0.4-0.4h-5.1c-0.2,0-0.4,0.2-0.4,0.4v8.3c-1.1,0.3-4.1,1.7-4.1,7.1v25.1
			c0,0.2,0.2,0.4,0.4,0.4h13.4c0.2,0,0.4-0.2,0.4-0.4V33.2C52.8,27.7,49.7,26.4,48.6,26.1z M50.5,54.8c0,0.2-0.2,0.4-0.4,0.4h-8.8
			c-0.2,0-0.4-0.2-0.4-0.4V33.5c0-0.2,0.2-0.4,0.4-0.4h8.8c0.2,0,0.4,0.2,0.4,0.4V54.8z"/>
		<path class="st0" d="M43.1,16.2h5.1c0.2,0,0.4-0.2,0.4-0.4v-6c0-0.2-0.2-0.4-0.4-0.4h-5.1c-0.2,0-0.4,0.2-0.4,0.4v6
			C42.7,16,42.9,16.2,43.1,16.2z"/>
	</g>
	<g>
		<path class="st0" d="M66.9,17.1V8.8c0-0.2-0.2-0.4-0.4-0.4h-5.1c-0.2,0-0.4,0.2-0.4,0.4v8.3c-1.1,0.3-4.1,1.7-4.1,7.1v34.1
			c0,0.2,0.2,0.4,0.4,0.4h13.4c0.2,0,0.4-0.2,0.4-0.4V24.2C71.1,18.7,68,17.4,66.9,17.1z M68.8,54.8c0,0.2-0.2,0.4-0.4,0.4h-8.8
			c-0.2,0-0.4-0.2-0.4-0.4V24.5c0-0.2,0.2-0.4,0.4-0.4h8.8c0.2,0,0.4,0.2,0.4,0.4V54.8z"/>
		<path class="st0" d="M61.4,7.2h5.1c0.2,0,0.4-0.2,0.4-0.4v-6c0-0.2-0.2-0.4-0.4-0.4h-5.1c-0.2,0-0.4,0.2-0.4,0.4v6
			C61,7,61.2,7.2,61.4,7.2z"/>
	</g>
	<g>
		<path class="st0" d="M85.6,26.1v-8.3c0-0.2-0.2-0.4-0.4-0.4h-5.1c-0.2,0-0.4,0.2-0.4,0.4v8.3c-1.1,0.3-4.1,1.7-4.1,7.1v25.1
			c0,0.2,0.2,0.4,0.4,0.4h13.4c0.2,0,0.4-0.2,0.4-0.4V33.2C89.7,27.7,86.7,26.4,85.6,26.1z M87.4,54.8c0,0.2-0.2,0.4-0.4,0.4h-8.8
			c-0.2,0-0.4-0.2-0.4-0.4V33.5c0-0.2,0.2-0.4,0.4-0.4H87c0.2,0,0.4,0.2,0.4,0.4V54.8z"/>
		<path class="st0" d="M80.1,16.2h5.1c0.2,0,0.4-0.2,0.4-0.4v-6c0-0.2-0.2-0.4-0.4-0.4h-5.1c-0.2,0-0.4,0.2-0.4,0.4v6
			C79.7,16,79.8,16.2,80.1,16.2z"/>
	</g>
</g>
</svg>
