<?xml version="1.0" encoding="utf-8"?>
<!-- Generator: Adobe Illustrator 26.0.2, SVG Export Plug-In . SVG Version: 6.00 Build 0)  -->
<svg version="1.1" id="Layer_1" xmlns="http://www.w3.org/2000/svg" xmlns:xlink="http://www.w3.org/1999/xlink" x="0px" y="0px"
	 viewBox="0 0 235 45" style="enable-background:new 0 0 235 45;" xml:space="preserve">
<style type="text/css">
	.st0{fill:#FDFCED;}
</style>
<g>
	<g>
		<g>
			<g>
				<polygon class="st0" points="118.5,14 113.1,9.6 113.1,9.5 110.7,9.5 110.7,16.2 112.9,16.2 112.9,11.9 118,16.2 118,16.2 
					120.7,16.2 120.7,9.5 118.5,9.5 				"/>
				<g>
					<path class="st0" d="M130.7,9.5h-1.3h-1.9h-2.2v0.3v1.4v3.3v1.4v0.1v0.2h2.2h2h1.3c1.3,0,4.4-0.1,4.4-3.4
						C135.2,9.6,132,9.5,130.7,9.5z M130.7,14.5h-0.5h-2.7v-3.2h1.5h1h0.5c0.6,0,2.3,0,2.3,1.6C132.9,14.5,131.3,14.5,130.7,14.5z"
						/>
				</g>
				<path class="st0" d="M102.4,9.5h-2.6L95,16.2h2.7l0.7-1.1h5.2l0.7,1.1h2.7L102.4,9.5z M99.3,13.8l1.7-2.7l1.7,2.7H99.3z"/>
			</g>
			<g>
				<g>
					<g>
						<polygon class="st0" points="154.9,3.6 139.1,3.6 139.1,8.5 143.6,8.5 143.6,22.1 150.3,22.1 150.3,8.5 154.9,8.5 						"/>
					</g>
					<g>
						<polygon class="st0" points="211.1,3.6 195.3,3.6 195.3,8.5 199.9,8.5 199.9,22.1 206.6,22.1 206.6,8.5 211.1,8.5 						"/>
					</g>
					<g>
						<polygon class="st0" points="227,7.5 227,3.6 220.3,3.6 214,3.6 214,7.5 214,10.3 214,14.7 214,17.4 214,22.1 220.3,22.1 
							227.4,22.1 227.4,17.4 220.2,17.4 220.2,14.7 226,14.7 226,10.3 220.2,10.3 220.2,7.5 						"/>
					</g>
					<g>
						<g>
							<path class="st0" d="M168.3,22.1h6.1l-7.1-18.5h-5.4l-7.1,18.5h6.2l0.7-2.5h5.9L168.3,22.1z M162.9,15.5l1.7-5.9l1.7,5.9
								H162.9z"/>
						</g>
					</g>
					<path class="st0" d="M191.8,13.1c-1-0.9-2.3-1.5-4.4-2.1l-3.2-0.7c-0.1,0-0.2-0.1-0.4-0.1c-1.4-0.4-1.9-1.2-1.5-1.7
						c0.2-0.4,0.9-0.7,1.6-0.7c0.2,0,0.4,0,0.5,0c1,0,2,0.1,3.4,1.6l4.8-2.1c-1.8-2.7-4.7-4-8.5-4c-4.8,0-8.3,2.4-8.3,5.4
						c0,1.3,0.5,2.4,1.5,3.3c1,0.9,2.4,1.5,4.7,2c4,1,4.7,1.4,4.8,2.1c0.1,0.3-0.1,0.6-0.3,0.8c-0.5,0.5-1.4,0.9-2.3,0.8
						c-1.3-0.1-3.1-0.4-4.7-2.4l-4.6,2.4c2.2,2.9,5.7,4.7,9.5,4.7c3,0,5.3-0.8,6.8-2c1.6-1.3,2.2-2.6,2.2-4
						C193.5,15,192.9,14,191.8,13.1z"/>
				</g>
				<g>
					<path class="st0" d="M231.3,3.6c-1,0-1.8-0.8-1.8-1.8c0-1,0.8-1.8,1.8-1.8c1,0,1.8,0.8,1.8,1.8C233.1,2.8,232.3,3.6,231.3,3.6z
						 M231.3,0.2c-0.9,0-1.6,0.7-1.6,1.6c0,0.9,0.7,1.6,1.6,1.6c0.9,0,1.6-0.7,1.6-1.6C232.9,0.9,232.2,0.2,231.3,0.2z"/>
					<g>
						<path class="st0" d="M232.2,2.8H232l0-0.3c-0.2,0.2-0.4,0.3-0.7,0.3c-0.5,0-0.9-0.4-0.9-1c0-0.4,0.1-0.7,0.4-0.8
							c0.1-0.1,0.3-0.2,0.6-0.2c0.4,0,0.7,0.2,0.8,0.6h-0.3c0-0.2-0.3-0.4-0.6-0.4c-0.4,0-0.7,0.3-0.7,0.8c0,0.2,0.1,0.5,0.2,0.6
							c0.1,0.1,0.3,0.2,0.5,0.2c0.4,0,0.6-0.2,0.6-0.6V2h-0.6V1.8h0.8V2.8z"/>
					</g>
				</g>
			</g>
			<g>
				<g>
					<g>
						<polygon class="st0" points="17.7,3.6 1.9,3.6 1.9,8.5 6.4,8.5 6.4,22.1 13.1,22.1 13.1,8.5 17.7,8.5 						"/>
					</g>
					<g>
						<polygon class="st0" points="73.9,3.6 58.1,3.6 58.1,8.5 62.7,8.5 62.7,22.1 69.4,22.1 69.4,8.5 73.9,8.5 						"/>
					</g>
					<g>
						<polygon class="st0" points="89.8,7.5 89.8,3.6 83.1,3.6 76.8,3.6 76.8,7.5 76.8,10.3 76.8,14.7 76.8,17.4 76.8,22.1 
							83.1,22.1 90.2,22.1 90.2,17.4 83,17.4 83,14.7 88.8,14.7 88.8,10.3 83,10.3 83,7.5 						"/>
					</g>
					<g>
						<g>
							<path class="st0" d="M31.1,22.1h6.1L30.1,3.6h-5.4l-7.1,18.5h6.2l0.7-2.5h5.9L31.1,22.1z M25.7,15.5l1.7-5.9l1.7,5.9H25.7z"
								/>
						</g>
					</g>
					<path class="st0" d="M54.6,13.1c-1-0.9-2.3-1.5-4.4-2.1L47,10.3c-0.1,0-0.2-0.1-0.3-0.1c-1.4-0.4-1.9-1.2-1.6-1.7
						c0.2-0.4,0.9-0.7,1.6-0.7c0.2,0,0.4,0,0.5,0c1,0,2,0.1,3.4,1.6l4.8-2.1c-1.8-2.7-4.7-4-8.5-4c-4.8,0-8.3,2.4-8.3,5.4
						c0,1.3,0.5,2.4,1.5,3.3c1,0.9,2.4,1.5,4.7,2c4,1,4.7,1.4,4.8,2.1c0,0.3-0.1,0.6-0.3,0.8c-0.5,0.5-1.4,0.9-2.3,0.8
						c-1.3-0.1-3.1-0.4-4.7-2.4l-4.6,2.4c2.2,2.9,5.7,4.7,9.5,4.7c3,0,5.3-0.8,6.8-2c1.6-1.3,2.2-2.6,2.2-4
						C56.3,15,55.7,14,54.6,13.1z"/>
				</g>
			</g>
		</g>
	</g>
	<g>
		<path class="st0" d="M81.1,45l-1.4-6.7L78.3,45h-1.6l-2.4-8.6h1.9l1.3,6.5l1.3-6.5h1.8l1.4,6.5l1.3-6.5h1.9L82.7,45H81.1z"/>
		<path class="st0" d="M88.2,45h-1.8v-8.6h1.8V45z"/>
		<path class="st0" d="M92,39v6h-1.8v-8.6h1.8l3.4,5.9v-5.9h1.8V45h-1.8L92,39z"/>
		<path class="st0" d="M101.2,43.5h4.7V45h-6.4v-8.6h6.2v1.5h-4.5v2h4.1v1.5h-4.1V43.5z"/>
		<path class="st0" d="M113.3,45h-1.8v-8.6h6.1v1.5h-4.3v2h3.8v1.5h-3.8V45z"/>
		<path class="st0" d="M120.8,45h-1.8v-8.6h1.8V45z"/>
		<path class="st0" d="M124.6,39v6h-1.8v-8.6h1.8l3.4,5.9v-5.9h1.8V45h-1.8L124.6,39z"/>
		<path class="st0" d="M132,36.4h3.4c1.3,0,2.1,0.3,2.7,1c0.7,0.8,1,2,1,3.3c0,1.3-0.4,2.5-1,3.3c-0.6,0.7-1.4,1-2.7,1H132V36.4z
			 M135.4,43.5c1.3,0,2-0.9,2-2.8c0-1.9-0.7-2.8-2-2.8h-1.6v5.7H135.4z"/>
		<path class="st0" d="M142.8,43.5h4.7V45H141v-8.6h6.2v1.5h-4.5v2h4.1v1.5h-4.1V43.5z"/>
		<path class="st0" d="M151.2,45h-1.8v-8.6h4.6c0.7,0,1.3,0.2,1.7,0.6c0.4,0.4,0.7,1.1,0.7,1.7c0,1.1-0.5,1.8-1.5,2.1
			c1.1,0.5,1.1,0.6,1.2,3.1c0,0.4,0.1,0.6,0.4,0.7V45h-1.9c-0.2-0.4-0.3-0.7-0.3-1.5c0-0.1,0-0.3,0-0.6v-0.4c0-0.7-0.3-1-1.1-1h-2
			V45z M153.3,40.1c0.5,0,0.7-0.1,0.9-0.2c0.2-0.2,0.3-0.5,0.3-0.9c0-0.4-0.1-0.7-0.3-0.9c-0.2-0.2-0.4-0.2-0.9-0.2h-2.1v2.2H153.3z
			"/>
	</g>
</g>
</svg>
